<?xml version="1.0" standalone="no"?>
<svg viewBox="0 0 200 200" xmlns="http://www.w3.org/2000/svg">
  <path fill="#00acb513" d="M25.1,-43.2C33.8,-38.4,42.9,-34.2,51.1,-27.2C59.3,-20.1,66.5,-10,70.9,2.6C75.4,15.2,77.1,30.3,70.4,40C63.7,49.7,48.6,53.9,35.5,57.8C22.4,61.7,11.2,65.2,1.2,63.2C-8.8,61.1,-17.7,53.5,-29.3,48.8C-40.9,44,-55.4,42.2,-62.9,34.5C-70.4,26.9,-71,13.4,-63.1,4.6C-55.2,-4.3,-38.8,-8.6,-33.5,-20C-28.1,-31.4,-33.7,-49.8,-30,-57.4C-26.2,-65.1,-13.1,-62,-2.5,-57.8C8.2,-53.5,16.4,-48,25.1,-43.2Z" transform="translate(100 100)" />
</svg>
