<?xml version="1.0" standalone="no"?>
<svg viewBox="0 0 200 200" xmlns="http://www.w3.org/2000/svg">
  <path fill="#00acb513" d="M11.9,-26C16.8,-17.7,23.2,-17.4,32.6,-14.4C42,-11.4,54.4,-5.7,60.6,3.6C66.8,12.9,66.8,25.7,60.1,33.3C53.3,41,39.9,43.4,28.7,48.2C17.6,53,8.8,60.3,-3,65.5C-14.7,70.6,-29.5,73.6,-40.4,68.6C-51.3,63.7,-58.4,50.8,-60.8,38C-63.2,25.2,-60.8,12.6,-62.3,-0.9C-63.9,-14.5,-69.5,-28.9,-65.8,-39.4C-62.1,-49.8,-49.2,-56.2,-36.6,-60.1C-24.1,-64,-12.1,-65.3,-4.3,-57.9C3.5,-50.4,6.9,-34.2,11.9,-26Z" transform="translate(100 100)" />
</svg>
