<svg id="Calque_1" data-name="Calque 1" xmlns="http://www.w3.org/2000/svg" viewBox="0 0 286.57 244.97"><defs><style>.cls-1{fill:#222831;}.cls-2{fill:#0daea1;}.cls-3{fill:#02a3a0;}.cls-4{fill:#1eb1a2;}.cls-5{fill:#00aeb5;}.cls-6{fill:#0caca2;}</style></defs><path class="cls-1" d="M381.12,444.7a108,108,0,0,1-18.67,21.44c-4.39,3.77-9.37,6.85-13.94,10.42-2.23,1.74-3.62,1.5-5.82-.36-8.81-7.46-18.83-8-29.45-4.53-3.45,1.14-5.46,4.18-8.49,5.81l-1,.15c-5.31.06-10.63,0-15.94.24-2.15.09-3.27-1.06-4.58-2.37-21.69-21.6-51.55-19.17-69.61,5.66-1.56,2.14-3.48,5.78-5,7.93l-.52.27c.21-7.66-2.68-16.58-2.22-24.31.57-9.74,5.45-17,14.65-20.42a270.72,270.72,0,0,1,30.77-9.49,6.67,6.67,0,0,0,4.76-3.48c5.69-9.53,11.91-18.75,17.79-28.18,4.85-7.8,12.42-11.38,20.91-11.52,27.07-.45,54.14-.17,81.21-.16.25,0,.5.31.82.52q-16.29,21.27-32.58,42.53c-.66.86-1.38,1.44-2.52.94H295.55c2.18-5.83,5.61-10.5,8.27-15.55,1-1.88,2.91-1.29,4.48-1.3,8.31-.08,16.61-.14,24.92-.05a5,5,0,0,0,5.13-2.9c2.15-3.9,4.73-7.56,7.1-11.28-.82-1.6-2.14-.87-3.13-.88-12.13-.05-24.25.06-36.38-.07-2.95,0-4.76.78-6.41,3.41-7.71,12.32-15.37,24.66-22.63,37.69C311.59,445.67,345.85,445,381.12,444.7Z" transform="translate(-146.9 -314.42)"/><path class="cls-2" d="M249.82,322.92h0s0,0,0,0ZM235,346.76l.63.13a3.4,3.4,0,0,0,.57,0,3.38,3.38,0,0,1-.56,0C235.45,346.85,235.24,346.81,235,346.76Z" transform="translate(-146.9 -314.42)"/><polygon class="cls-3" points="128.07 168.12 128 168.12 128 168.07 128.07 168.12"/><path class="cls-4" d="M406.39,438.23" transform="translate(-146.9 -314.42)"/><path class="cls-5" d="M381.66,438.1a162.6,162.6,0,0,1-28.17-.21c-.91-2.4,1-3.61,2.17-5.14,4.12-6,8.22-12,12.36-18a2.46,2.46,0,0,1,2.55-1.18c4.09-1.08,8.26-.53,12.38-.54,15.13,0,30.26.08,45.38.24,1.41,0,3.5-1,4.11,1.5q.21,3,.4,5.91c1.09,4.89.43,9.84.45,14.77,0,2.23-.89,3.25-3.29,3.16" transform="translate(-146.9 -314.42)"/><path class="cls-5" d="M406.7,478.14H364.15c.11-1.85,1.46-2.48,2.6-3.25a36.71,36.71,0,0,0,7.57-7.34l14-18.33c2.46-3.08,3.09-4.42,6.34-4.42q16.86,0,33.73-.19c2.1,0,3.63.19,3.07,2.9a103.61,103.61,0,0,1-10.64,29.22c-.67,1.23-.39,1.26-2.86,1.41" transform="translate(-146.9 -314.42)"/><path class="cls-4" d="M249.87,322.9s0,0,0,0h0Z" transform="translate(-146.9 -314.42)"/><path class="cls-2" d="M236.23,346.85a3.4,3.4,0,0,1-.57,0l-.63-.13c.21.05.42.09.64.12A3.38,3.38,0,0,0,236.23,346.85Z" transform="translate(-146.9 -314.42)"/><path class="cls-1" d="M277.17,486c-6.42,0-16.87-.56-23.29-.41-10.38.26-20.54.68-30.91,1,2.38-15.63,19.43-18,24.53-18.57a16.29,16.29,0,0,1,3.2,0C256.51,468.61,273,471.69,277.17,486Z" transform="translate(-146.9 -314.42)"/><path class="cls-5" d="M430.57,403.84a107.11,107.11,0,0,0-13.94-29l-1-1.14.13,0c-7.66-12.9-18.91-22.28-30.37-31.57-20.07-16.27-43.46-23.69-68.59-26.87a165.83,165.83,0,0,0-31.82,0c-12,1.06-23.94,2.75-35.12,7.74,0,0,0,0,0,0h0l.05,0a1.33,1.33,0,0,0-.93.21c-16.57,5.51-31.16,14.56-44.4,25.68a159,159,0,0,0-47.94,68.87A59.2,59.2,0,0,0,152,432.42c-.6,1.88-1.37,3.72-1.8,5.63-4.14,18.35-3.77,36.92-2.3,55.5.38,4.76.17,9.65,2,14.26a179.48,179.48,0,0,1,7.61-51c-.92-.19-2-.23-2.17-1.43a1.32,1.32,0,0,1,.49-1.15c1.24-.45,1.33,1.08,2.16,1.4q1.53-4.47,3.05-8.95a.64.64,0,0,0,.19-.65l.74-1.3c1.3-3.29,2.2-6.81,4-9.82,5.2-8.81,10.74-17.42,16.14-26.1A206.74,206.74,0,0,1,219,370a79.19,79.19,0,0,0,13-9.07q5.92-3,11.86-6.08c20.9-9.49,42.72-14.42,65.75-12.89q39.25,2.61,68,29.6A102.8,102.8,0,0,1,401,404.85c1.33,3,3,4.25,6.39,4.09,6.3-.28,12.64-.28,18.95,0C430.47,409.17,432,408.34,430.57,403.84ZM158.35,450.26c-.27-.12-.71-.18-.78-.38s.19-.54.31-.82l.83.36Z" transform="translate(-146.9 -314.42)"/><path class="cls-5" d="M279.91,484.78h54.87c25.81-.11,51.62-.09,77.42-.32h3a4.56,4.56,0,0,1-.35,1.23c-9.6,21.64-32.17,31.62-55.68,35.8a113.09,113.09,0,0,1-41.46-.1c-13.78-1-27.07-4.89-40.66-7-24.53-3.84-48.92-4.51-73.11,2.21a9.06,9.06,0,0,1-1.48.17c-8.4,3.5-16.8,6.94-24.5,11.94a110.1,110.1,0,0,0-15.79,12.83c-4.39,5.73-9.4,11.05-12.29,17.87,2.52-10.46,5.35-20.74,11.16-29.9,4.4-6.93,9.76-17.32,21.2-26.58,9.41-7.61,16.31-11.11,24.72-13.41,17-4.31,35.88-4.24,42.86-4.42Z" transform="translate(-146.9 -314.42)"/><path class="cls-2" d="M158,455.65l-.48,1.18c-.92-.19-2-.23-2.17-1.43a1.32,1.32,0,0,1,.49-1.15C157.08,453.8,157.17,455.33,158,455.65Z" transform="translate(-146.9 -314.42)"/><path class="cls-2" d="M249.87,322.9s0,0,0,0h0Z" transform="translate(-146.9 -314.42)"/><path class="cls-6" d="M235.67,346.88a3.38,3.38,0,0,0,.56,0,3.4,3.4,0,0,1-.57,0l-.63-.13C235.24,346.81,235.45,346.85,235.67,346.88Z" transform="translate(-146.9 -314.42)"/><path class="cls-2" d="M158.71,449.42l-.36.84c-.27-.12-.71-.18-.78-.38s.19-.54.31-.82Z" transform="translate(-146.9 -314.42)"/></svg>